# xmcd
#
# Track frame offsets:
#	150
#	40291
#	58460
#	87296
#	123742
#	147537
#	163756
#	220599
#	242926
#	252400
#	275626
#	290065
#
# Disc length: 4077 seconds
#
# Revision: 1
# Processed by: cddbd v1.5.2PL0 Copyright (c) Steve Scherf et al.
# Submitted via: audiograbber 1.83.01
#
DISCID=cb0feb0c
DTITLE=Grateful Dead - 73-03-22 Utica Memorial Auditorium, Utica NY
DYEAR=1900
DGENRE=
TTITLE0=Sugaree
TTITLE1=Mexicali Blues
TTITLE2=They Love Each Other
TTITLE3=Looks Like Rain
TTITLE4=Deal
TTITLE5=BIODTL
TTITLE6=Bird Song
TTITLE7=Jack Straw
TTITLE8=Phil's Fire Aisle Talk
TTITLE9=Box Of Rain
TTITLE10=You Ain't Woman Enough
TTITLE11=The Race Is On
EXTD=
EXTT0=
EXTT1=
EXTT2=
EXTT3=
EXTT4=
EXTT5=
EXTT6=
EXTT7=
EXTT8=
EXTT9=
EXTT10=
EXTT11=
PLAYORDER=
